<svg width="20" height="20" viewBox="0 0 20 20" fill="none" xmlns="http://www.w3.org/2000/svg">
<path d="M5 18.3333C4.30556 18.3333 3.71528 18.0903 3.22917 17.6042C2.74306 17.118 2.5 16.5278 2.5 15.8333V13.3333H5V1.66666L6.25 2.91666L7.5 1.66666L8.75 2.91666L10 1.66666L11.25 2.91666L12.5 1.66666L13.75 2.91666L15 1.66666L16.25 2.91666L17.5 1.66666V15.8333C17.5 16.5278 17.2569 17.118 16.7708 17.6042C16.2847 18.0903 15.6944 18.3333 15 18.3333H5ZM15 16.6667C15.2361 16.6667 15.434 16.5868 15.5938 16.4271C15.7535 16.2673 15.8333 16.0694 15.8333 15.8333V4.16666H6.66667V13.3333H14.1667V15.8333C14.1667 16.0694 14.2465 16.2673 14.4062 16.4271C14.566 16.5868 14.7639 16.6667 15 16.6667ZM7.5 7.49999V5.83332H12.5V7.49999H7.5ZM7.5 9.99999V8.33332H12.5V9.99999H7.5ZM14.1667 7.49999C13.9306 7.49999 13.7326 7.42013 13.5729 7.26041C13.4132 7.10068 13.3333 6.90277 13.3333 6.66666C13.3333 6.43054 13.4132 6.23263 13.5729 6.07291C13.7326 5.91318 13.9306 5.83332 14.1667 5.83332C14.4028 5.83332 14.6007 5.91318 14.7604 6.07291C14.9201 6.23263 15 6.43054 15 6.66666C15 6.90277 14.9201 7.10068 14.7604 7.26041C14.6007 7.42013 14.4028 7.49999 14.1667 7.49999ZM14.1667 9.99999C13.9306 9.99999 13.7326 9.92013 13.5729 9.76041C13.4132 9.60068 13.3333 9.40277 13.3333 9.16666C13.3333 8.93054 13.4132 8.73263 13.5729 8.57291C13.7326 8.41318 13.9306 8.33332 14.1667 8.33332C14.4028 8.33332 14.6007 8.41318 14.7604 8.57291C14.9201 8.73263 15 8.93054 15 9.16666C15 9.40277 14.9201 9.60068 14.7604 9.76041C14.6007 9.92013 14.4028 9.99999 14.1667 9.99999ZM5 16.6667H12.5V15H4.16667V15.8333C4.16667 16.0694 4.24653 16.2673 4.40625 16.4271C4.56597 16.5868 4.76389 16.6667 5 16.6667Z" fill="#78787F"/>
</svg>
